<svg xmlns="http://www.w3.org/2000/svg"
 xmlns:xlink="http://www.w3.org/1999/xlink"
 width="13px" height="16px"  viewBox="0 0 13 16">
<path fill-rule="evenodd"  fill="#bb9c66"
 d="M4.420532,7.5009613 C6.3096924,7.5009613 8.525024,6.882019 8.525024,9.125198 C8.525024,11.369614 6.9936523,14.000671 5.1048584,14.000671 C3.2156982,14.000671 1.0001221,11.369614 1.0001221,9.125198 C1.0001221,6.882019 2.5314941,7.5009613 4.420532,7.5009613 ZM1.6842041,3.4379272 C2.0620117,3.4379272 2.3684082,3.8019562 2.3684082,4.250656 C2.3684082,4.250656 2.3684082,9.125198 2.3684082,9.125198 C2.3684082,9.574509 2.0620117,9.938232 1.6842041,9.938232 C1.3065186,9.938232 1.0001221,9.574509 1.0001221,9.125198 C1.0001221,9.125198 1.0001221,4.250656 1.0001221,4.250656 C1.0001221,3.8019562 1.3065186,3.4379272 1.6842041,3.4379272 ZM3.7365723,1.813385 C4.11438,1.813385 4.420532,2.1771088 4.420532,2.6258087 C4.420532,2.6258087 4.420532,9.125198 4.420532,9.125198 C4.420532,9.574509 4.11438,9.938232 3.7365723,9.938232 C3.3587646,9.938232 3.0523682,9.574509 3.0523682,9.125198 C3.0523682,9.125198 3.0523682,2.6258087 3.0523682,2.6258087 C3.0523682,2.1771088 3.3587646,1.813385 3.7365723,1.813385 ZM5.7886963,1.0006409 C6.166626,1.0006409 6.4729004,1.3643799 6.4729004,1.813385 C6.4729004,1.813385 6.4729004,9.125198 6.4729004,9.125198 C6.4729004,9.574509 6.166626,9.938232 5.7886963,9.938232 C5.4108887,9.938232 5.1048584,9.574509 5.1048584,9.125198 C5.1048584,9.125198 5.1048584,1.813385 5.1048584,1.813385 C5.1048584,1.3643799 5.4108887,1.0006409 5.7886963,1.0006409 ZM7.8410645,2.6258087 C8.21875,2.6258087 8.525024,2.9895325 8.525024,3.4379272 C8.525024,3.4379272 8.525024,9.125198 8.525024,9.125198 C8.525024,9.574509 8.21875,9.938232 7.8410645,9.938232 C7.463135,9.938232 7.1569824,9.574509 7.1569824,9.125198 C7.1569824,9.125198 7.1569824,3.4379272 7.1569824,3.4379272 C7.1569824,2.9895325 7.463135,2.6258087 7.8410645,2.6258087 ZM5.000244,9.000488 C5.000244,9.000488 8.232178,8.634323 8.232178,8.634323 C8.6328125,8.158722 10.599365,6.524399 11.000244,7.0006104 C11.400879,7.476822 10.400757,9.524689 10.000244,10.000595 C10.000244,10.000595 7.000122,14.000671 7.000122,14.000671 C6.5994873,14.476868 5.400879,12.47699 5.000244,12.000778 C4.599365,11.524567 4.599365,9.477005 5.000244,9.000488 Z"/>
</svg>