<svg xmlns="http://www.w3.org/2000/svg"
 xmlns:xlink="http://www.w3.org/1999/xlink"
 width="18px" height="17px"  viewBox="0 0 18 17">
<path fill-rule="evenodd"  fill="#bb9c66"
 d="M6.0,11.0004425 C6.781128,11.78138 6.2456055,13.583511 5.4645996,14.364151 C4.6834717,15.145393 3.4172363,15.145393 2.6362305,14.364151 C1.8551025,13.583511 1.8551025,12.317192 2.6362305,11.535942 C3.4172363,10.7547 5.218994,10.219498 6.0,11.0004425 ZM9.000122,10.0006485 C9.000122,10.0006485 7.0,8.000458 7.0,8.000458 C7.0,8.000458 14.000122,1.0004044 14.000122,1.0004044 C14.000122,1.0004044 16.0,3.000595 16.0,3.000595 C16.0,3.000595 9.000122,10.0006485 9.000122,10.0006485 ZM14.000122,3.000595 C14.000122,3.000595 15.0,2.000496 15.0,2.000496 C15.0,2.000496 17.0,4.0003815 17.0,4.0003815 C17.0,4.0003815 16.0,5.000786 16.0,5.000786 C16.0,5.000786 14.000122,3.000595 14.000122,3.000595 ZM12.0,5.000786 C12.0,5.000786 13.000122,4.0003815 13.000122,4.0003815 C13.000122,4.0003815 15.0,6.000267 15.0,6.000267 C15.0,6.000267 14.000122,7.0006714 14.000122,7.0006714 C14.000122,7.0006714 12.0,5.000786 12.0,5.000786 Z"/>
</svg>