<svg xmlns="http://www.w3.org/2000/svg"
 xmlns:xlink="http://www.w3.org/1999/xlink"
 width="20px" height="20px"  viewBox="0 0 20 20">
<path fill-rule="evenodd"  fill="#bb9c66"
 d="M11.327148,3.8192444 C11.327148,3.8192444 16.180786,8.673004 16.180786,8.673004 C16.180786,8.673004 13.754028,11.099884 13.754028,11.099884 C13.754028,11.099884 8.9001465,6.2464294 8.9001465,6.2464294 C8.9001465,6.2464294 11.327148,3.8192444 11.327148,3.8192444 ZM17.39441,8.673004 C17.39441,8.673004 18.001099,9.279724 18.001099,9.279724 C18.001099,9.279724 14.360718,12.920349 14.360718,12.920349 C14.360718,12.920349 13.754028,12.313324 13.754028,12.313324 C13.754028,12.313324 17.39441,8.673004 17.39441,8.673004 ZM1.6193848,15.953644 C1.6193848,15.953644 4.0462646,18.380829 4.0462646,18.380829 C4.0462646,18.380829 3.4395752,18.987564 3.4395752,18.987564 C3.4395752,18.987564 1.0126953,16.560669 1.0126953,16.560669 C1.0126953,16.560669 1.6193848,15.953644 1.6193848,15.953644 ZM10.720337,1.9990845 C10.720337,1.9990845 11.327148,2.6058044 11.327148,2.6058044 C11.327148,2.6058044 7.6866455,6.2464294 7.6866455,6.2464294 C7.6866455,6.2464294 7.079956,5.6394043 7.079956,5.6394043 C7.079956,5.6394043 10.720337,1.9990845 10.720337,1.9990845 ZM9.506958,8.066589 C9.506958,8.066589 11.933716,10.493164 11.933716,10.493164 C11.933716,10.493164 11.327148,11.099884 11.327148,11.099884 C11.327148,11.099884 8.9001465,8.673004 8.9001465,8.673004 C8.9001465,8.673004 9.506958,8.066589 9.506958,8.066589 ZM3.4395752,14.133484 C3.4395752,14.133484 5.866455,16.560669 5.866455,16.560669 C5.866455,16.560669 5.2597656,17.167389 5.2597656,17.167389 C5.2597656,17.167389 2.8328857,14.740509 2.8328857,14.740509 C2.8328857,14.740509 3.4395752,14.133484 3.4395752,14.133484 ZM10.113525,8.673004 C10.113525,8.673004 11.327148,9.886749 11.327148,9.886749 C11.327148,9.886749 4.0462646,17.167389 4.0462646,17.167389 C4.0462646,17.167389 2.8328857,15.953644 2.8328857,15.953644 C2.8328857,15.953644 10.113525,8.673004 10.113525,8.673004 Z"/>
</svg>