<svg xmlns="http://www.w3.org/2000/svg"
 xmlns:xlink="http://www.w3.org/1999/xlink"
 width="13px" height="16px"  viewBox="0 0 13 16">
<path fill-rule="evenodd"  fill="#ffffff"
 d="M4.4205933,7.5010986 C6.3096924,7.5010986 8.525085,6.882202 8.525085,9.125732 C8.525085,11.369751 6.9937134,14.0008545 5.1048584,14.0008545 C3.2156982,14.0008545 1.0001221,11.369751 1.0001221,9.125732 C1.0001221,6.882202 2.5315552,7.5010986 4.4205933,7.5010986 ZM1.6842651,3.4383545 C2.0620117,3.4383545 2.3684082,3.802124 2.3684082,4.2508545 C2.3684082,4.2508545 2.3684082,9.125732 2.3684082,9.125732 C2.3684082,9.574707 2.0620117,9.9383545 1.6842651,9.9383545 C1.3065796,9.9383545 1.0001221,9.574707 1.0001221,9.125732 C1.0001221,9.125732 1.0001221,4.2508545 1.0001221,4.2508545 C1.0001221,3.802124 1.3065796,3.4383545 1.6842651,3.4383545 ZM3.7365723,1.8135986 C4.114441,1.8135986 4.4205933,2.177246 4.4205933,2.6259766 C4.4205933,2.6259766 4.4205933,9.125732 4.4205933,9.125732 C4.4205933,9.574707 4.114441,9.9383545 3.7365723,9.9383545 C3.3587646,9.9383545 3.0524292,9.574707 3.0524292,9.125732 C3.0524292,9.125732 3.0524292,2.6259766 3.0524292,2.6259766 C3.0524292,2.177246 3.3587646,1.8135986 3.7365723,1.8135986 ZM5.7887573,1.0008545 C6.166626,1.0008545 6.4729004,1.364502 6.4729004,1.8135986 C6.4729004,1.8135986 6.4729004,9.125732 6.4729004,9.125732 C6.4729004,9.574707 6.166626,9.9383545 5.7887573,9.9383545 C5.4109497,9.9383545 5.1048584,9.574707 5.1048584,9.125732 C5.1048584,9.125732 5.1048584,1.8135986 5.1048584,1.8135986 C5.1048584,1.364502 5.4109497,1.0008545 5.7887573,1.0008545 ZM7.8410645,2.6259766 C8.218811,2.6259766 8.525085,2.989746 8.525085,3.4383545 C8.525085,3.4383545 8.525085,9.125732 8.525085,9.125732 C8.525085,9.574707 8.218811,9.9383545 7.8410645,9.9383545 C7.463135,9.9383545 7.1570435,9.574707 7.1570435,9.125732 C7.1570435,9.125732 7.1570435,3.4383545 7.1570435,3.4383545 C7.1570435,2.989746 7.463135,2.6259766 7.8410645,2.6259766 ZM5.000305,9.00061 C5.000305,9.00061 8.232178,8.6345215 8.232178,8.6345215 C8.6328125,8.158936 10.599426,6.524536 11.000183,7.0007324 C11.400879,7.4769287 10.400818,9.524902 10.000305,10.000732 C10.000305,10.000732 7.000122,14.0008545 7.000122,14.0008545 C6.5994873,14.477051 5.40094,12.477173 5.000305,12.000977 C4.599365,11.52478 4.599365,9.477173 5.000305,9.00061 Z"/>
</svg>