<svg xmlns="http://www.w3.org/2000/svg"
 xmlns:xlink="http://www.w3.org/1999/xlink"
 width="17px" height="11px"  viewBox="0 0 17 11">
<path fill-rule="evenodd"  fill="#ffffff"
 d="M8.000122,1.0006104 C11.866089,1.0006104 15.000061,5.000366 15.000061,5.000366 C15.000061,5.000366 11.866089,9.000488 8.000122,9.000488 C4.134033,9.000488 1.0001221,5.000366 1.0001221,5.000366 C1.0001221,5.000366 4.134033,1.0006104 8.000122,1.0006104 ZM8.000122,1.6672363 C11.0928955,1.6672363 13.600098,5.000366 13.600098,5.000366 C13.600098,5.000366 11.0928955,8.334106 8.000122,8.334106 C4.9073486,8.334106 2.4000244,5.000366 2.4000244,5.000366 C2.4000244,5.000366 4.9073486,1.6672363 8.000122,1.6672363 ZM8.000122,1.8007812 C9.718262,1.8007812 11.111267,3.2333984 11.111267,5.000366 C11.111267,6.7679443 9.718262,8.200806 8.000122,8.200806 C6.2818604,8.200806 4.888977,6.7679443 4.888977,5.000366 C4.888977,3.2333984 6.2818604,1.8007812 8.000122,1.8007812 Z"/>
</svg>